<svg width="277" height="76" viewBox="0 0 277 76" fill="none" xmlns="http://www.w3.org/2000/svg">
<rect x="0.5" width="276" height="76" rx="8" fill="#E65925"/>
<path d="M36.3477 40V29C36.3477 28.2044 36.6637 27.4413 37.2263 26.8787C37.7889 26.3161 38.552 26 39.3477 26C40.1433 26 40.9064 26.3161 41.469 26.8787C42.0316 27.4413 42.3477 28.2044 42.3477 29V40" stroke="white" stroke-width="4" stroke-linecap="round" stroke-linejoin="round"/>
<path d="M60.3477 39V45.5C60.3477 51.851 55.1987 57 48.8477 57H47.8477C41.4967 57 36.3477 51.851 36.3477 45.5V39" stroke="white" stroke-width="4" stroke-linecap="round" stroke-linejoin="round"/>
<path d="M42.3477 43V38C42.3477 37.2044 42.6637 36.4413 43.2263 35.8787C43.7889 35.3161 44.552 35 45.3477 35C46.1433 35 46.9064 35.3161 47.469 35.8787C48.0316 36.4413 48.3477 37.2044 48.3477 38M48.3477 38V43M48.3477 38C48.3477 37.2044 48.6637 36.4413 49.2263 35.8787C49.7889 35.3161 50.552 35 51.3477 35C52.1433 35 52.9064 35.3161 53.469 35.8787C54.0316 36.4413 54.3477 37.2044 54.3477 38M54.3477 38V43M54.3477 38C54.3477 37.2044 54.6637 36.4413 55.2263 35.8787C55.7889 35.3161 56.552 35 57.3477 35C58.1433 35 58.9064 35.3161 59.469 35.8787C60.0316 36.4413 60.3477 37.2044 60.3477 38V43" stroke="white" stroke-width="4" stroke-linecap="round" stroke-linejoin="round"/>
<path d="M49.3477 29C49.35 26.8594 48.6631 24.7749 47.3887 23.055C46.4596 21.7965 45.2479 20.7739 43.8512 20.0696C42.4545 19.3653 40.9119 18.9989 39.3477 19C37.7833 18.9987 36.2404 19.365 34.8436 20.0694C33.4467 20.7737 32.2348 21.7964 31.3057 23.055C30.0316 24.775 29.3451 26.8595 29.3477 29" stroke="white" stroke-width="4" stroke-linecap="round"/>
<path d="M105.592 45.228C104.781 45.228 103.97 45.076 103.16 44.772C102.362 44.4553 101.652 44.0057 101.032 43.423L102.533 41.637C102.976 42.0423 103.47 42.3653 104.015 42.606C104.572 42.8467 105.117 42.967 105.649 42.967C106.269 42.967 106.732 42.853 107.036 42.625C107.352 42.3843 107.511 42.055 107.511 41.637C107.511 41.3583 107.435 41.1303 107.283 40.953C107.131 40.7757 106.915 40.6237 106.637 40.497C106.371 40.3577 106.054 40.212 105.687 40.06L104.053 39.357C103.622 39.1797 103.217 38.9453 102.837 38.654C102.457 38.3627 102.146 38.0017 101.906 37.571C101.665 37.1277 101.545 36.6083 101.545 36.013C101.545 35.329 101.728 34.7147 102.096 34.17C102.476 33.6253 102.989 33.1947 103.635 32.878C104.293 32.5487 105.041 32.384 105.877 32.384C106.599 32.384 107.302 32.5233 107.986 32.802C108.682 33.0807 109.29 33.4733 109.81 33.98L108.48 35.633C108.087 35.3163 107.682 35.0693 107.264 34.892C106.846 34.7147 106.383 34.626 105.877 34.626C105.37 34.626 104.958 34.7337 104.642 34.949C104.338 35.1643 104.186 35.4683 104.186 35.861C104.186 36.127 104.268 36.3487 104.433 36.526C104.597 36.7033 104.825 36.8617 105.117 37.001C105.421 37.1277 105.75 37.267 106.105 37.419L107.701 38.065C108.207 38.2677 108.644 38.521 109.012 38.825C109.379 39.129 109.664 39.4963 109.867 39.927C110.082 40.345 110.19 40.8453 110.19 41.428C110.19 42.112 110.006 42.7453 109.639 43.328C109.284 43.898 108.758 44.3603 108.062 44.715C107.378 45.057 106.554 45.228 105.592 45.228ZM116.265 45.228C115.378 45.228 114.574 45.0317 113.852 44.639C113.143 44.2463 112.579 43.689 112.161 42.967C111.743 42.2323 111.534 41.3457 111.534 40.307C111.534 39.2937 111.743 38.4197 112.161 37.685C112.592 36.9503 113.143 36.3803 113.814 35.975C114.485 35.5697 115.195 35.367 115.942 35.367C116.816 35.367 117.544 35.5633 118.127 35.956C118.722 36.3487 119.166 36.887 119.457 37.571C119.761 38.2423 119.913 39.0087 119.913 39.87C119.913 40.098 119.9 40.326 119.875 40.554C119.85 40.7693 119.824 40.934 119.799 41.048H113.586L113.567 39.319H117.671C117.671 38.7363 117.538 38.2677 117.272 37.913C117.006 37.5457 116.582 37.362 115.999 37.362C115.657 37.362 115.328 37.457 115.011 37.647C114.694 37.837 114.435 38.1537 114.232 38.597C114.029 39.0277 113.928 39.5977 113.928 40.307C113.928 41.029 114.055 41.6053 114.308 42.036C114.574 42.454 114.91 42.758 115.315 42.948C115.72 43.138 116.151 43.233 116.607 43.233C116.987 43.233 117.342 43.1823 117.671 43.081C118.013 42.967 118.355 42.8087 118.697 42.606L119.552 44.183C119.083 44.4997 118.558 44.753 117.975 44.943C117.405 45.133 116.835 45.228 116.265 45.228ZM124.296 45.228C123.7 45.228 123.225 45.1077 122.871 44.867C122.516 44.6137 122.256 44.2653 122.092 43.822C121.94 43.3787 121.864 42.853 121.864 42.245V31.662H124.467V42.359C124.467 42.6377 124.517 42.834 124.619 42.948C124.733 43.062 124.847 43.119 124.961 43.119C125.024 43.119 125.075 43.119 125.113 43.119C125.163 43.1063 125.227 43.0937 125.303 43.081L125.626 45C125.474 45.0633 125.29 45.114 125.075 45.152C124.859 45.2027 124.6 45.228 124.296 45.228ZM131.369 45.228C130.482 45.228 129.678 45.0317 128.956 44.639C128.246 44.2463 127.683 43.689 127.265 42.967C126.847 42.2323 126.638 41.3457 126.638 40.307C126.638 39.2937 126.847 38.4197 127.265 37.685C127.695 36.9503 128.246 36.3803 128.918 35.975C129.589 35.5697 130.298 35.367 131.046 35.367C131.92 35.367 132.648 35.5633 133.231 35.956C133.826 36.3487 134.269 36.887 134.561 37.571C134.865 38.2423 135.017 39.0087 135.017 39.87C135.017 40.098 135.004 40.326 134.979 40.554C134.953 40.7693 134.928 40.934 134.903 41.048H128.69L128.671 39.319H132.775C132.775 38.7363 132.642 38.2677 132.376 37.913C132.11 37.5457 131.685 37.362 131.103 37.362C130.761 37.362 130.431 37.457 130.115 37.647C129.798 37.837 129.538 38.1537 129.336 38.597C129.133 39.0277 129.032 39.5977 129.032 40.307C129.032 41.029 129.158 41.6053 129.412 42.036C129.678 42.454 130.013 42.758 130.419 42.948C130.824 43.138 131.255 43.233 131.711 43.233C132.091 43.233 132.445 43.1823 132.775 43.081C133.117 42.967 133.459 42.8087 133.801 42.606L134.656 44.183C134.187 44.4997 133.661 44.753 133.079 44.943C132.509 45.133 131.939 45.228 131.369 45.228ZM141.014 45.228C140.153 45.228 139.374 45.038 138.677 44.658C137.981 44.2653 137.423 43.7017 137.005 42.967C136.6 42.2323 136.397 41.3457 136.397 40.307C136.397 39.2683 136.625 38.3817 137.081 37.647C137.537 36.9123 138.133 36.3487 138.867 35.956C139.602 35.5633 140.394 35.367 141.242 35.367C141.825 35.367 142.344 35.4683 142.8 35.671C143.256 35.861 143.655 36.1017 143.997 36.393L142.743 38.084C142.515 37.8687 142.294 37.7167 142.078 37.628C141.876 37.5267 141.648 37.476 141.394 37.476C140.926 37.476 140.514 37.5963 140.159 37.837C139.817 38.065 139.551 38.3943 139.361 38.825C139.171 39.243 139.076 39.737 139.076 40.307C139.076 40.877 139.171 41.3773 139.361 41.808C139.551 42.226 139.811 42.549 140.14 42.777C140.482 43.005 140.869 43.119 141.299 43.119C141.629 43.119 141.945 43.0493 142.249 42.91C142.553 42.7707 142.826 42.5997 143.066 42.397L144.111 44.107C143.655 44.4997 143.155 44.7847 142.61 44.962C142.066 45.1393 141.534 45.228 141.014 45.228ZM149.166 45.228C148.026 45.228 147.209 44.8987 146.715 44.24C146.234 43.5813 145.993 42.72 145.993 41.656V37.647H144.701V35.709L146.145 35.595L146.449 33.087H148.596V35.595H150.895V37.647H148.596V41.637C148.596 42.169 148.704 42.5617 148.919 42.815C149.147 43.0557 149.458 43.176 149.85 43.176C150.015 43.176 150.18 43.157 150.344 43.119C150.509 43.081 150.655 43.0367 150.781 42.986L151.199 44.886C150.946 44.962 150.648 45.038 150.306 45.114C149.964 45.19 149.584 45.228 149.166 45.228ZM156.808 45V32.612H160.95C161.862 32.612 162.685 32.7323 163.42 32.973C164.154 33.2137 164.737 33.6253 165.168 34.208C165.611 34.778 165.833 35.557 165.833 36.545C165.833 37.495 165.617 38.274 165.187 38.882C164.756 39.49 164.173 39.946 163.439 40.25C162.717 40.5413 161.912 40.687 161.026 40.687H159.411V45H156.808ZM159.411 38.597H160.855C161.678 38.597 162.286 38.426 162.679 38.084C163.071 37.7293 163.268 37.2163 163.268 36.545C163.268 35.8483 163.052 35.367 162.622 35.101C162.204 34.8223 161.589 34.683 160.779 34.683H159.411V38.597ZM170.256 45.228C169.66 45.228 169.185 45.1077 168.831 44.867C168.476 44.6137 168.216 44.2653 168.052 43.822C167.9 43.3787 167.824 42.853 167.824 42.245V31.662H170.427V42.359C170.427 42.6377 170.477 42.834 170.579 42.948C170.693 43.062 170.807 43.119 170.921 43.119C170.984 43.119 171.035 43.119 171.073 43.119C171.123 43.1063 171.187 43.0937 171.263 43.081L171.586 45C171.434 45.0633 171.25 45.114 171.035 45.152C170.819 45.2027 170.56 45.228 170.256 45.228ZM175.505 45.228C174.947 45.228 174.46 45.1077 174.042 44.867C173.624 44.6137 173.294 44.278 173.054 43.86C172.826 43.4293 172.712 42.948 172.712 42.416C172.712 41.428 173.136 40.6553 173.985 40.098C174.833 39.5407 176.201 39.1607 178.089 38.958C178.076 38.6667 178.013 38.407 177.899 38.179C177.797 37.951 177.633 37.7737 177.405 37.647C177.189 37.5203 176.898 37.457 176.531 37.457C176.113 37.457 175.695 37.5393 175.277 37.704C174.871 37.856 174.447 38.065 174.004 38.331L173.054 36.602C173.434 36.374 173.839 36.165 174.27 35.975C174.7 35.785 175.144 35.6393 175.6 35.538C176.056 35.424 176.531 35.367 177.025 35.367C177.823 35.367 178.494 35.5253 179.039 35.842C179.583 36.1587 179.995 36.6273 180.274 37.248C180.552 37.856 180.692 38.6287 180.692 39.566V45H178.564L178.374 44.012H178.298C177.905 44.3667 177.474 44.658 177.006 44.886C176.55 45.114 176.049 45.228 175.505 45.228ZM176.379 43.214C176.721 43.214 177.018 43.138 177.272 42.986C177.538 42.8213 177.81 42.606 178.089 42.34V40.554C177.367 40.6427 176.797 40.7693 176.379 40.934C175.961 41.086 175.663 41.276 175.486 41.504C175.308 41.7193 175.22 41.9537 175.22 42.207C175.22 42.549 175.327 42.8023 175.543 42.967C175.758 43.1317 176.037 43.214 176.379 43.214ZM183.131 45V35.595H185.259L185.449 36.811H185.525C185.931 36.4183 186.374 36.0827 186.855 35.804C187.349 35.5127 187.919 35.367 188.565 35.367C189.579 35.367 190.313 35.7027 190.769 36.374C191.238 37.0453 191.472 37.97 191.472 39.148V45H188.869V39.49C188.869 38.7807 188.768 38.2867 188.565 38.008C188.363 37.7293 188.046 37.59 187.615 37.59C187.235 37.59 186.912 37.6787 186.646 37.856C186.38 38.0207 186.076 38.2677 185.734 38.597V45H183.131Z" fill="white"/>
</svg>
