<svg width="157" height="32" viewBox="0 0 157 32" fill="none" xmlns="http://www.w3.org/2000/svg">
<path d="M57.5601 26.5064C57.0807 26.7248 56.6885 26.7248 53.9865 26.7248C50.5437 26.7248 50.2823 26.5064 50.2823 23.6668C50.2823 21.7446 50.3694 21.2641 50.8052 20.8709C51.241 20.4777 51.764 20.3904 54.7274 20.3904C57.8215 20.3904 58.083 20.4777 58.1702 21.7883H61.613V21.3951C61.613 19.6477 61.1772 18.5992 60.2184 18.1187C59.2161 17.6382 58.2573 17.5508 53.8558 17.5508C50.5437 17.5508 49.4107 17.7255 48.3648 18.3371C47.1445 19.0361 46.7959 20.1719 46.7959 23.2736C46.7959 26.7685 47.1445 28.0354 48.2776 28.7781C49.2364 29.3897 50.3258 29.5644 53.725 29.5644C56.0783 29.5644 57.4729 29.5644 58.2137 29.4771C60.0441 29.346 61.0028 28.8655 61.4822 27.8607C61.7437 27.3364 61.7873 26.7248 61.7873 25.0211H58.3009C58.2573 25.9385 58.083 26.288 57.5601 26.5064Z" fill="#E65925"/>
<path d="M76.2995 17.7695C75.4714 17.6384 74.4255 17.5947 71.0263 17.5947C67.9322 17.5947 66.8427 17.6821 65.8404 17.9442C64.533 18.3374 63.8357 18.9927 63.4871 20.2596C63.2692 21.0459 63.2256 21.5702 63.2256 23.536C63.2256 26.1135 63.3127 26.9872 63.7921 27.8609C64.2279 28.7347 65.0124 29.2152 66.3197 29.4773C67.017 29.6084 68.4551 29.6521 71.2878 29.6521C72.4209 29.6521 73.9897 29.6521 74.6434 29.6084C76.343 29.521 77.3454 29.2589 78.0426 28.6473C79.045 27.8172 79.35 26.6814 79.35 23.7981C79.35 22.3565 79.3065 21.3954 79.2629 20.9149C79.0014 19.0364 78.0862 18.0753 76.2995 17.7695ZM75.3407 26.0698C74.9485 26.6377 74.2948 26.7251 71.2007 26.7251C68.4987 26.7251 67.9322 26.6377 67.4528 26.2446C67.017 25.8514 66.8863 25.2398 66.8863 23.4923C66.8863 21.7886 67.017 21.2207 67.4964 20.8275C67.9758 20.478 68.673 20.3906 71.3314 20.3906C75.7329 20.3906 75.8201 20.4343 75.8201 23.405C75.7765 25.065 75.6893 25.633 75.3407 26.0698Z" fill="#E65925"/>
<path d="M107.067 26.681L99.9196 17.6816H93.8621L93.9492 26.681L86.8022 17.6816H81.0933V29.5205H84.536L84.4489 20.6086L91.5088 29.5205H97.2613V20.2591L104.583 29.5205H110.379V17.6816H106.98L107.067 26.681Z" fill="#E65925"/>
<path d="M115.87 24.7588H124.847V22.3997H115.87V20.3902H125.414V17.6816H112.34V29.5205H125.544V26.8557H115.87V24.7588Z" fill="#E65925"/>
<path d="M137.659 26.5064C137.18 26.7248 136.788 26.7248 134.086 26.7248C130.643 26.7248 130.381 26.5064 130.381 23.6668C130.381 21.7446 130.469 21.2641 130.904 20.8709C131.34 20.4777 131.863 20.3904 134.826 20.3904C137.921 20.3904 138.182 20.4777 138.269 21.7883H141.712V21.3951C141.712 19.6477 141.276 18.5992 140.318 18.1187C139.315 17.6382 138.356 17.5508 133.955 17.5508C130.643 17.5508 129.51 17.7255 128.464 18.3371C127.244 19.0361 126.895 20.1719 126.895 23.2736C126.895 26.7685 127.244 28.0354 128.377 28.7781C129.335 29.3897 130.425 29.5644 133.824 29.5644C136.177 29.5644 137.572 29.5644 138.313 29.4771C140.143 29.346 141.102 28.8655 141.581 27.8607C141.843 27.3364 141.886 26.7248 141.886 25.0211H138.4C138.356 25.9385 138.182 26.288 137.659 26.5064Z" fill="#E65925"/>
<path d="M148.119 29.5203H151.692V20.6084L148.119 22.4869V29.5203Z" fill="#E65925"/>
<path d="M156.921 17.6816H142.845V20.6086H156.921V17.6816Z" fill="#E65925"/>
<path d="M59.7829 2.56635C61.6132 2.91583 62.4848 3.83324 62.7463 5.75542C62.8334 6.23597 62.8334 7.19706 62.8334 8.6387C62.8334 11.4783 62.5284 12.6578 61.526 13.4878C60.8288 14.0995 59.8264 14.3616 58.1268 14.4489C57.4731 14.4926 55.9043 14.4926 54.7712 14.4926C51.9821 14.4926 50.544 14.4489 49.8031 14.3179C48.4957 14.0995 47.7549 13.5752 47.2755 12.7015C46.7961 11.8278 46.709 10.9541 46.709 8.37658C46.709 6.41071 46.7526 5.88648 46.9705 5.10013C47.3191 3.83324 48.0164 3.17795 49.3238 2.78478C50.3261 2.52266 51.372 2.43529 54.5097 2.43529C57.9089 2.34792 58.9548 2.3916 59.7829 2.56635ZM50.9798 5.66805C50.5004 6.06123 50.3697 6.62914 50.3697 8.3329C50.3697 10.0803 50.5004 10.6919 50.9362 11.0851C51.4156 11.4783 51.9821 11.5657 54.684 11.5657C57.7782 11.5657 58.4319 11.4783 58.8241 10.9104C59.1727 10.4735 59.2599 9.86191 59.2599 8.28921C59.2599 5.31856 59.2163 5.27488 54.7712 5.27488C52.1564 5.27488 51.4592 5.36225 50.9798 5.66805Z" fill="#081525"/>
<path d="M64.6201 2.47852H70.329L77.4761 11.4778L77.3889 2.47852H80.7881V14.2737H75.0356L67.9757 5.40548L68.0629 14.3174H64.6201V2.47852Z" fill="#081525"/>
<path d="M95.823 2.47852V5.14336H86.2791V7.1966H95.2565V9.55565H86.2791V11.6526H95.9102V14.3174H82.7056V2.5222H95.823V2.47852Z" fill="#081525"/>
<path d="M102.839 5.40548H97.6099V2.47852H111.686V5.40548H106.457V14.3174H102.883V5.40548H102.839Z" fill="#081525"/>
<path d="M115.957 2.47852H120.751L127.201 14.2737H123.278L122.102 12.1768H114.519L113.386 14.2737H109.333L115.957 2.47852ZM120.882 9.73039L118.354 5.0123L115.826 9.73039H120.882Z" fill="#081525"/>
<path d="M127.811 2.47852H136.832C139.098 2.47852 139.708 2.56589 140.449 2.91538C141.625 3.48329 142.061 4.57544 142.061 6.80343C142.061 9.0751 141.669 10.2109 140.667 10.8225C139.969 11.2594 139.185 11.3905 137.137 11.3905H131.384V14.3174H127.811V2.47852ZM136.57 8.55087C138.052 8.55087 138.444 8.24507 138.444 7.10923C138.444 5.71128 138.095 5.36179 136.57 5.36179H131.34V8.55087H136.57Z" fill="#081525"/>
<path d="M18.2514 11.6528L16.0724 9.46849C16.0724 9.46849 16.0288 9.4248 15.9853 9.4248C15.9417 9.4248 15.9417 9.4248 15.8981 9.46849C14.2421 11.1722 13.2397 13.4439 13.2397 15.9777C13.2397 18.5115 14.2421 20.8269 15.8981 22.4869C15.8981 22.4869 15.9417 22.5306 15.9853 22.5306C16.0288 22.5306 16.0288 22.5306 16.0724 22.4869L18.2514 20.3026C18.295 20.2589 18.295 20.1716 18.2514 20.1279C17.2055 19.0357 16.5518 17.5504 16.5518 15.934C16.5518 14.3176 17.2055 12.8323 18.2514 11.7402C18.3386 11.7838 18.295 11.6965 18.2514 11.6528Z" fill="#E65925"/>
<path d="M34.1581 7.06574C34.2017 7.06574 34.2888 7.10943 34.2888 7.1968V24.8459C34.2888 24.8896 34.2452 24.977 34.1581 24.977H16.2905L11.6274 29.6514H35.2912C37.9059 29.6514 40.0849 27.5108 40.0849 24.8459V7.15312C40.0849 4.53196 37.9495 2.34766 35.2912 2.34766H11.6274L16.2905 7.02206H34.1581V7.06574ZM37.4701 9.42479V22.5743C37.4701 22.749 37.3394 22.9238 37.1215 22.9238C36.9036 22.9238 36.7729 22.7927 36.7729 22.5743V9.42479C36.7729 9.25005 36.9036 9.0753 37.1215 9.0753C37.3394 9.0753 37.4701 9.25005 37.4701 9.42479Z" fill="#081525"/>
<path d="M13.5883 6.97896L11.4094 4.79466C11.4094 4.79466 11.3658 4.75098 11.3222 4.75098C11.2786 4.75098 11.2786 4.75098 11.235 4.79466C8.40236 7.67794 6.65918 11.6534 6.65918 16.022C6.65918 20.3906 8.40236 24.366 11.235 27.2493C11.235 27.2493 11.2786 27.293 11.3222 27.293C11.3658 27.293 11.3658 27.293 11.4094 27.2493L13.5883 25.065C13.6319 25.0213 13.6319 24.9339 13.5883 24.8902C11.3658 22.6186 9.97123 19.4732 9.97123 16.022C9.97123 12.5708 11.3658 9.42538 13.5883 7.15371C13.6319 7.11002 13.6319 7.02265 13.5883 6.97896Z" fill="#E65925"/>
<path d="M6.57209 0.119859C2.51919 4.22634 0.0351562 9.81815 0.0351562 16.0216C0.0351562 22.225 2.51919 27.8168 6.57209 31.9233C6.57209 31.9233 6.61567 31.967 6.65925 31.967C6.70283 31.967 6.70283 31.967 6.74641 31.9233L8.92539 29.739C8.96897 29.6953 8.96897 29.6079 8.92539 29.5642C5.4826 26.0693 3.3472 21.3076 3.3472 16.0216C3.3472 10.7356 5.4826 5.97378 8.92539 2.4789C8.96897 2.43522 8.96897 2.34785 8.92539 2.30416L6.74641 0.119859C6.74641 0.119859 6.70283 0.0761719 6.65925 0.0761719C6.61567 0.0761719 6.61567 0.0761729 6.57209 0.119859Z" fill="#E65925"/>
<path d="M22.9416 18.7076C24.4227 18.5248 25.4755 17.173 25.2931 15.6884C25.1108 14.2037 23.7623 13.1483 22.2813 13.3311C20.8002 13.5139 19.7474 14.8657 19.9298 16.3503C20.1121 17.835 21.4606 18.8904 22.9416 18.7076Z" fill="#E65925"/>
</svg>
