<svg width="315" height="99" viewBox="0 0 315 99" fill="none" xmlns="http://www.w3.org/2000/svg">
<rect width="315" height="99" fill="white"/>
<path d="M83.5601 58.5064C83.0807 58.7248 82.6885 58.7248 79.9865 58.7248C76.5437 58.7248 76.2823 58.5064 76.2823 55.6668C76.2823 53.7446 76.3694 53.2641 76.8052 52.8709C77.241 52.4777 77.764 52.3904 80.7274 52.3904C83.8215 52.3904 84.083 52.4777 84.1702 53.7883H87.613V53.3951C87.613 51.6477 87.1772 50.5992 86.2184 50.1187C85.2161 49.6382 84.2573 49.5508 79.8558 49.5508C76.5437 49.5508 75.4107 49.7255 74.3648 50.3371C73.1445 51.0361 72.7959 52.1719 72.7959 55.2736C72.7959 58.7685 73.1445 60.0354 74.2776 60.7781C75.2364 61.3897 76.3258 61.5644 79.725 61.5644C82.0783 61.5644 83.4729 61.5644 84.2137 61.4771C86.0441 61.346 87.0028 60.8655 87.4822 59.8607C87.7437 59.3364 87.7873 58.7248 87.7873 57.0211H84.3009C84.2573 57.9385 84.083 58.288 83.5601 58.5064Z" fill="#E65925"/>
<path d="M102.299 49.7695C101.471 49.6384 100.426 49.5947 97.0263 49.5947C93.9322 49.5947 92.8427 49.6821 91.8404 49.9442C90.533 50.3374 89.8357 50.9927 89.4871 52.2596C89.2692 53.0459 89.2256 53.5702 89.2256 55.536C89.2256 58.1135 89.3127 58.9872 89.7921 59.8609C90.2279 60.7347 91.0124 61.2152 92.3197 61.4773C93.017 61.6084 94.4551 61.6521 97.2878 61.6521C98.4209 61.6521 99.9897 61.6521 100.643 61.6084C102.343 61.521 103.345 61.2589 104.043 60.6473C105.045 59.8173 105.35 58.6814 105.35 55.7981C105.35 54.3565 105.306 53.3954 105.263 52.9149C105.001 51.0364 104.086 50.0753 102.299 49.7695ZM101.341 58.0698C100.948 58.6377 100.295 58.7251 97.2007 58.7251C94.4987 58.7251 93.9322 58.6377 93.4528 58.2446C93.017 57.8514 92.8863 57.2398 92.8863 55.4923C92.8863 53.7886 93.017 53.2207 93.4964 52.8275C93.9758 52.478 94.673 52.3906 97.3314 52.3906C101.733 52.3906 101.82 52.4343 101.82 55.405C101.777 57.065 101.689 57.633 101.341 58.0698Z" fill="#E65925"/>
<path d="M133.067 58.681L125.92 49.6816H119.862L119.949 58.681L112.802 49.6816H107.093V61.5205H110.536L110.449 52.6086L117.509 61.5205H123.261V52.2591L130.583 61.5205H136.379V49.6816H132.98L133.067 58.681Z" fill="#E65925"/>
<path d="M141.87 56.7588H150.847V54.3997H141.87V52.3902H151.414V49.6816H138.34V61.5205H151.544V58.8557H141.87V56.7588Z" fill="#E65925"/>
<path d="M163.659 58.5064C163.18 58.7248 162.788 58.7248 160.086 58.7248C156.643 58.7248 156.381 58.5064 156.381 55.6668C156.381 53.7446 156.469 53.2641 156.904 52.8709C157.34 52.4777 157.863 52.3904 160.826 52.3904C163.921 52.3904 164.182 52.4777 164.269 53.7883H167.712V53.3951C167.712 51.6477 167.276 50.5992 166.318 50.1187C165.315 49.6382 164.356 49.5508 159.955 49.5508C156.643 49.5508 155.51 49.7255 154.464 50.3371C153.244 51.0361 152.895 52.1719 152.895 55.2736C152.895 58.7685 153.244 60.0354 154.377 60.7781C155.335 61.3897 156.425 61.5644 159.824 61.5644C162.177 61.5644 163.572 61.5644 164.313 61.4771C166.143 61.346 167.102 60.8655 167.581 59.8607C167.843 59.3364 167.886 58.7248 167.886 57.0211H164.4C164.356 57.9385 164.182 58.288 163.659 58.5064Z" fill="#E65925"/>
<path d="M174.119 61.5203H177.692V52.6084L174.119 54.4869V61.5203Z" fill="#E65925"/>
<path d="M182.921 49.6816H168.845V52.6086H182.921V49.6816Z" fill="#E65925"/>
<path d="M85.7829 34.5663C87.6132 34.9158 88.4848 35.8332 88.7463 37.7554C88.8334 38.236 88.8334 39.1971 88.8334 40.6387C88.8334 43.4783 88.5284 44.6578 87.526 45.4878C86.8288 46.0995 85.8264 46.3616 84.1268 46.4489C83.4731 46.4926 81.9043 46.4926 80.7712 46.4926C77.9821 46.4926 76.544 46.4489 75.8031 46.3179C74.4957 46.0995 73.7549 45.5752 73.2755 44.7015C72.7961 43.8278 72.709 42.9541 72.709 40.3766C72.709 38.4107 72.7526 37.8865 72.9705 37.1001C73.3191 35.8332 74.0164 35.1779 75.3238 34.7848C76.3261 34.5227 77.372 34.4353 80.5097 34.4353C83.9089 34.3479 84.9548 34.3916 85.7829 34.5663ZM76.9798 37.6681C76.5004 38.0612 76.3697 38.6291 76.3697 40.3329C76.3697 42.0803 76.5004 42.6919 76.9362 43.0851C77.4156 43.4783 77.9821 43.5657 80.684 43.5657C83.7782 43.5657 84.4319 43.4783 84.8241 42.9104C85.1727 42.4735 85.2599 41.8619 85.2599 40.2892C85.2599 37.3186 85.2163 37.2749 80.7712 37.2749C78.1564 37.2749 77.4592 37.3622 76.9798 37.6681Z" fill="#081525"/>
<path d="M90.6201 34.4785H96.329L103.476 43.4778L103.389 34.4785H106.788V46.2737H101.036L93.9757 37.4055L94.0629 46.3174H90.6201V34.4785Z" fill="#081525"/>
<path d="M121.823 34.4785V37.1434H112.279V39.1966H121.256V41.5556H112.279V43.6526H121.91V46.3174H108.706V34.5222H121.823V34.4785Z" fill="#081525"/>
<path d="M128.839 37.4055H123.61V34.4785H137.686V37.4055H132.457V46.3174H128.883V37.4055H128.839Z" fill="#081525"/>
<path d="M141.957 34.4785H146.751L153.201 46.2737H149.278L148.102 44.1768H140.519L139.386 46.2737H135.333L141.957 34.4785ZM146.882 41.7304L144.354 37.0123L141.826 41.7304H146.882Z" fill="#081525"/>
<path d="M153.811 34.4785H162.832C165.098 34.4785 165.708 34.5659 166.449 34.9154C167.625 35.4833 168.061 36.5754 168.061 38.8034C168.061 41.0751 167.669 42.2109 166.667 42.8225C165.969 43.2594 165.185 43.3905 163.137 43.3905H157.384V46.3174H153.811V34.4785ZM162.57 40.5509C164.052 40.5509 164.444 40.2451 164.444 39.1092C164.444 37.7113 164.095 37.3618 162.57 37.3618H157.34V40.5509H162.57Z" fill="#081525"/>
<path d="M44.2514 43.6528L42.0724 41.4685C42.0724 41.4685 42.0288 41.4248 41.9853 41.4248C41.9417 41.4248 41.9417 41.4248 41.8981 41.4685C40.2421 43.1722 39.2397 45.4439 39.2397 47.9777C39.2397 50.5115 40.2421 52.8269 41.8981 54.4869C41.8981 54.4869 41.9417 54.5306 41.9853 54.5306C42.0288 54.5306 42.0288 54.5306 42.0724 54.4869L44.2514 52.3026C44.295 52.2589 44.295 52.1716 44.2514 52.1279C43.2055 51.0357 42.5518 49.5504 42.5518 47.934C42.5518 46.3176 43.2055 44.8323 44.2514 43.7402C44.3386 43.7838 44.295 43.6965 44.2514 43.6528Z" fill="#E65925"/>
<path d="M60.1581 39.0657C60.2017 39.0657 60.2888 39.1094 60.2888 39.1968V56.8459C60.2888 56.8896 60.2452 56.977 60.1581 56.977H42.2905L37.6274 61.6514H61.2912C63.9059 61.6514 66.0849 59.5108 66.0849 56.8459V39.1531C66.0849 36.532 63.9495 34.3477 61.2912 34.3477H37.6274L42.2905 39.0221H60.1581V39.0657ZM63.4701 41.4248V54.5743C63.4701 54.749 63.3394 54.9238 63.1215 54.9238C62.9036 54.9238 62.7729 54.7927 62.7729 54.5743V41.4248C62.7729 41.25 62.9036 41.0753 63.1215 41.0753C63.3394 41.0753 63.4701 41.25 63.4701 41.4248Z" fill="#081525"/>
<path d="M39.5883 38.979L37.4094 36.7947C37.4094 36.7947 37.3658 36.751 37.3222 36.751C37.2786 36.751 37.2786 36.751 37.235 36.7947C34.4024 39.6779 32.6592 43.6534 32.6592 48.022C32.6592 52.3906 34.4024 56.366 37.235 59.2493C37.235 59.2493 37.2786 59.293 37.3222 59.293C37.3658 59.293 37.3658 59.293 37.4094 59.2493L39.5883 57.065C39.6319 57.0213 39.6319 56.9339 39.5883 56.8902C37.3658 54.6186 35.9712 51.4732 35.9712 48.022C35.9712 44.5708 37.3658 41.4254 39.5883 39.1537C39.6319 39.11 39.6319 39.0226 39.5883 38.979Z" fill="#E65925"/>
<path d="M32.5721 32.1199C28.5192 36.2263 26.0352 41.8182 26.0352 48.0216C26.0352 54.225 28.5192 59.8168 32.5721 63.9233C32.5721 63.9233 32.6157 63.967 32.6593 63.967C32.7028 63.967 32.7028 63.967 32.7464 63.9233L34.9254 61.739C34.969 61.6953 34.969 61.6079 34.9254 61.5642C31.4826 58.0693 29.3472 53.3076 29.3472 48.0216C29.3472 42.7356 31.4826 37.9738 34.9254 34.4789C34.969 34.4352 34.969 34.3478 34.9254 34.3042L32.7464 32.1199C32.7464 32.1199 32.7028 32.0762 32.6593 32.0762C32.6157 32.0762 32.6157 32.0762 32.5721 32.1199Z" fill="#E65925"/>
<path d="M48.9416 50.7076C50.4227 50.5248 51.4755 49.173 51.2931 47.6884C51.1108 46.2037 49.7623 45.1483 48.2813 45.3311C46.8002 45.5139 45.7474 46.8657 45.9298 48.3503C46.1121 49.835 47.4606 50.8904 48.9416 50.7076Z" fill="#E65925"/>
</svg>
