<svg width="20" height="21" viewBox="0 0 20 21" fill="none" xmlns="http://www.w3.org/2000/svg">
<path d="M17.5833 0.75H2.41667C1.84203 0.75 1.29093 0.978273 0.884602 1.3846C0.478273 1.79093 0.25 2.34203 0.25 2.91667V18.0833C0.25 18.658 0.478273 19.2091 0.884602 19.6154C1.29093 20.0217 1.84203 20.25 2.41667 20.25H17.5833C18.158 20.25 18.7091 20.0217 19.1154 19.6154C19.5217 19.2091 19.75 18.658 19.75 18.0833V2.91667C19.75 2.34203 19.5217 1.79093 19.1154 1.3846C18.7091 0.978273 18.158 0.75 17.5833 0.75ZM13.9 15.9167L10 12.0167L6.1 15.9167L4.58333 14.4L8.48333 10.5L4.58333 6.6L6.1 5.08333L10 8.98333L13.9 5.08333L15.4167 6.6L11.5167 10.5L15.4167 14.4L13.9 15.9167Z" fill="#A49F9F"/>
</svg>
